HIERARCHY
ROOT Hips
{
	OFFSET 0.000000 0.000000 0.000000
	CHANNELS 6 Xposition Yposition Zposition Zrotation Yrotation Xrotation 
	JOINT LHipJoint
	{
		OFFSET 0.000000 0.000000 0.000000
		CHANNELS 3 Zrotation Yrotation Xrotation
		JOINT LeftUpLeg
		{
			OFFSET 1.363060 -1.794630 0.839290
			CHANNELS 3 Zrotation Yrotation Xrotation
			JOINT LeftLeg
			{
				OFFSET 2.448110 -6.726130 0.000000
				CHANNELS 3 Zrotation Yrotation Xrotation
				JOINT LeftFoot
				{
					OFFSET 2.562200 -7.039590 0.000000
					CHANNELS 3 Zrotation Yrotation Xrotation
					JOINT LeftToeBase
					{
						OFFSET 0.157640 -0.433110 2.322550
						CHANNELS 3 Zrotation Yrotation Xrotation
						End Site
						{
							OFFSET 0.000000 0.000000 0.000000
						}
					}
				}
			}
		}
	}
	JOINT RHipJoint
	{
		OFFSET 0.000000 0.000000 0.000000
		CHANNELS 3 Zrotation Yrotation Xrotation
		JOINT RightUpLeg
		{
			OFFSET -1.305520 -1.794630 0.839290
			CHANNELS 3 Zrotation Yrotation Xrotation
			JOINT RightLeg
			{
				OFFSET -2.542530 -6.985550 0.000000
				CHANNELS 3 Zrotation Yrotation Xrotation
				JOINT RightFoot
				{
					OFFSET -2.568260 -7.056230 0.000000
					CHANNELS 3 Zrotation Yrotation Xrotation
					JOINT RightToeBase
					{
						OFFSET -0.164730 -0.452590 2.363150
						CHANNELS 3 Zrotation Yrotation Xrotation
						End Site
						{
							OFFSET 0.000000 0.000000 0.000000
						}
					}
				}
			}
		}
	}
}
MOTION
Frames: 13
Frame Time: 0.008333
-19.509986 16.015252 -0.212366 1.317132 80.524966 27.830592 -8.596406 -1.852261 2.814783 -4.163148 -8.332509 -64.851717 -0.537569 2.148571 42.169227 1.993659 8.958160 -3.392622 1.271400 0.000001 -31.803800 10.702609 -3.079042 -2.370562 0.930735 -4.914780 2.233510 1.158049 -1.520251 18.001123 -0.101233 1.454660 10.796331 0.296300 0.000000 -90.722600
-19.281048 16.048171 -0.229945 1.522646 80.396066 27.830907 -8.632812 -1.796649 2.636988 -4.848305 -7.922283 -63.927706 -0.585144 2.181389 42.739969 1.974238 8.841430 -4.034990 1.128800 -0.000001 -31.662200 10.865169 -3.120602 -2.448739 0.492585 -5.654027 1.108320 0.892693 -1.770275 20.694637 -0.293460 0.733502 13.406006 0.190100 0.000001 -89.675100
-19.054030 16.084454 -0.249325 1.919093 80.342179 27.987221 -8.664847 -1.728830 2.464260 -5.574752 -7.538849 -62.869649 -0.653215 2.193265 43.151065 1.950372 8.674348 -4.842227 0.956300 0.000000 -31.578800 11.034631 -3.120961 -2.548026 0.055342 -6.543030 -0.100568 0.635331 -1.985217 23.489410 -0.534790 -0.281175 15.824111 -0.073200 -0.000001 -87.547500
-18.828596 16.124095 -0.271238 2.366173 80.364709 28.174926 -8.698821 -1.648321 2.308277 -6.288439 -7.191198 -61.708382 -0.734390 2.186248 43.411337 1.924100 8.466019 -5.766472 0.764900 -0.000000 -31.540800 11.192387 -3.080245 -2.662950 -0.329110 -7.523942 -1.365231 0.401548 -2.162509 26.325705 -0.815079 -1.632197 17.924399 -0.543899 -0.000000 -84.389400
-18.604759 16.167342 -0.294817 2.994013 80.470440 28.528367 -8.727939 -1.557630 2.172141 -6.995306 -6.908409 -60.440520 -0.825130 2.156519 43.507791 1.898806 8.242201 -6.749019 0.568300 0.000000 -31.534000 11.343802 -3.003376 -2.792957 -0.682654 -8.585342 -2.677604 0.203947 -2.311681 29.170706 -1.118430 -3.278004 19.587350 -1.220000 -0.000001 -80.455700
-18.382550 16.214546 -0.319808 3.789167 80.653519 29.044225 -8.751631 -1.457822 2.060345 -7.674832 -6.700465 -59.077782 -0.920906 2.104106 43.432630 1.876229 8.018359 -7.733665 0.377201 -0.000000 -31.546700 11.483498 -2.897965 -2.934540 -0.990480 -9.682661 -4.025477 0.047908 -2.442887 31.980878 -1.429168 -5.162917 20.724204 -2.069099 0.000000 -76.118000
-18.161526 16.266094 -0.346482 4.615752 80.898013 29.602408 -8.776272 -1.348762 1.979880 -8.285757 -6.560867 -57.646839 -1.016923 2.032573 43.183704 1.856430 7.800518 -8.671209 0.199800 -0.000000 -31.571800 11.598308 -2.774107 -3.080957 -1.210845 -10.757063 -5.404599 -0.069202 -2.564240 34.715519 -1.732189 -7.198732 21.289578 -3.022600 -0.000000 -71.708700
-17.941578 16.322412 -0.374209 5.490144 81.188923 30.225570 -8.799674 -1.232401 1.929175 -8.826881 -6.489319 -56.150414 -1.111335 1.941989 42.746444 1.839737 7.601639 -9.516253 0.042900 -0.000000 -31.602600 11.690401 -2.640402 -3.226850 -1.345792 -11.771254 -6.818496 -0.153658 -2.685285 37.350046 -2.015187 -9.256463 21.288345 -3.976700 0.000000 -67.559500
-17.722859 16.383731 -0.402732 6.356038 81.505964 30.865792 -8.823299 -1.110322 1.906001 -9.289337 -6.473413 -54.597767 -1.202680 1.834303 42.112236 1.825312 7.426997 -10.236097 -0.089299 0.000000 -31.633400 11.758256 -2.503919 -3.365352 -1.384494 -12.683731 -8.273751 -0.213977 -2.810811 39.864256 -2.268456 -11.208496 20.765669 -4.827800 0.000000 -63.865200
-17.505124 16.450174 -0.431671 7.158852 81.827284 31.472532 -8.848416 -0.983996 1.905797 -9.672360 -6.495803 -52.992034 -1.290558 1.711053 41.271322 1.812092 7.280352 -10.808013 -0.194700 -0.000000 -31.659301 11.802213 -2.369460 -3.488954 -1.323789 -13.458839 -9.775276 -0.258283 -2.941969 42.239715 -2.484997 -12.942375 19.801568 -5.491601 -0.000000 -60.726700
-17.288458 16.521521 -0.460800 7.828227 82.131286 31.976773 -8.876989 -0.855024 1.922388 -9.977951 -6.535363 -51.335205 -1.375036 1.574065 40.219491 1.798857 7.162593 -11.221460 -0.273000 0.000000 -31.674701 11.822494 -2.239698 -3.591233 -1.162917 -14.068890 -11.324292 -0.292918 -3.076840 44.459052 -2.659752 -14.373196 18.494374 -5.916899 0.000000 -58.162100
-17.073104 16.597334 -0.489895 8.288189 82.398604 32.301010 -8.911295 -0.724842 1.948612 -10.211546 -6.569464 -49.625981 -1.456488 1.425052 38.956450 1.784445 7.072862 -11.475521 -0.325100 -0.000000 -31.673500 11.819509 -2.115603 -3.667092 -0.906448 -14.495135 -12.915220 -0.322005 -3.211314 46.502471 -2.789424 -15.448296 16.952828 -6.090500 -0.000000 -56.152700
-16.858984 16.676907 -0.518843 8.462260 82.613791 32.363829 -8.953827 -0.594741 1.977162 -10.380085 -6.576375 -47.861267 -1.535191 1.265800 37.487825 1.767929 7.009247 -11.577684 -0.353100 -0.000001 -31.648600 11.793514 -1.997045 -3.713425 -0.562129 -14.728408 -14.534495 -0.347652 -3.340062 48.348316 -2.872426 -16.146929 15.286240 -6.033000 0.000000 -54.671000
